<?xml version="1.0" encoding="UTF-8" standalone="no"?>
<!DOCTYPE svg PUBLIC "-//W3C//DTD SVG 1.1//EN"
 "http://www.w3.org/Graphics/SVG/1.1/DTD/svg11.dtd">
<!-- Generated by graphviz version 2.40.1 (0)
 -->
<!-- Title: controllers_diagram Pages: 1 -->
<svg width="852pt" height="802pt"
 viewBox="0.00 0.00 852.00 802.00" xmlns="http://www.w3.org/2000/svg" xmlns:xlink="http://www.w3.org/1999/xlink">
<g id="graph0" class="graph" transform="scale(1 1) rotate(0) translate(4 798)">
<title>controllers_diagram</title>
<polygon fill="transparent" stroke="transparent" points="-4,4 -4,-798 848,-798 848,4 -4,4"/>
<!-- _diagram_info -->
<g id="node1" class="node">
<title>_diagram_info</title>
<text text-anchor="start" x="84" y="-158.6" font-family="Times,serif" font-size="13.00" fill="#000000">Controllers diagram</text>
<text text-anchor="start" x="84" y="-144.6" font-family="Times,serif" font-size="13.00" fill="#000000">Date: Oct 30 2019 &#45; 13:01</text>
<text text-anchor="start" x="84" y="-130.6" font-family="Times,serif" font-size="13.00" fill="#000000">Migration version: 20191019013207</text>
<text text-anchor="start" x="84" y="-116.6" font-family="Times,serif" font-size="13.00" fill="#000000">Generated by RailRoady 1.5.3</text>
<text text-anchor="start" x="84" y="-102.6" font-family="Times,serif" font-size="13.00" fill="#000000">http://railroady.prestonlee.com</text>
</g>
<!-- ArtistMapsController -->
<g id="node2" class="node">
<title>ArtistMapsController</title>
<path fill="none" stroke="#000000" d="M373,-.5C373,-.5 519,-.5 519,-.5 525,-.5 531,-6.5 531,-12.5 531,-12.5 531,-141.5 531,-141.5 531,-147.5 525,-153.5 519,-153.5 519,-153.5 373,-153.5 373,-153.5 367,-153.5 361,-147.5 361,-141.5 361,-141.5 361,-12.5 361,-12.5 361,-6.5 367,-.5 373,-.5"/>
<text text-anchor="middle" x="446" y="-138.3" font-family="Times,serif" font-size="14.00" fill="#000000">ArtistMapsController</text>
<polyline fill="none" stroke="#000000" points="361,-130.5 531,-130.5 "/>
<text text-anchor="start" x="369" y="-115.3" font-family="Times,serif" font-size="14.00" fill="#000000">create</text>
<text text-anchor="start" x="369" y="-100.3" font-family="Times,serif" font-size="14.00" fill="#000000">destroy</text>
<text text-anchor="start" x="369" y="-85.3" font-family="Times,serif" font-size="14.00" fill="#000000">index</text>
<text text-anchor="start" x="369" y="-70.3" font-family="Times,serif" font-size="14.00" fill="#000000">show</text>
<polyline fill="none" stroke="#000000" points="361,-62.5 531,-62.5 "/>
<polyline fill="none" stroke="#000000" points="361,-38.5 531,-38.5 "/>
<text text-anchor="start" x="369" y="-23.3" font-family="Times,serif" font-size="14.00" fill="#000000">artist_map_params</text>
<text text-anchor="start" x="369" y="-8.3" font-family="Times,serif" font-size="14.00" fill="#000000">find_artist_map</text>
</g>
<!-- AlbumMapsController -->
<g id="node3" class="node">
<title>AlbumMapsController</title>
<path fill="none" stroke="#000000" d="M12,-342.5C12,-342.5 164,-342.5 164,-342.5 170,-342.5 176,-348.5 176,-354.5 176,-354.5 176,-483.5 176,-483.5 176,-489.5 170,-495.5 164,-495.5 164,-495.5 12,-495.5 12,-495.5 6,-495.5 0,-489.5 0,-483.5 0,-483.5 0,-354.5 0,-354.5 0,-348.5 6,-342.5 12,-342.5"/>
<text text-anchor="middle" x="88" y="-480.3" font-family="Times,serif" font-size="14.00" fill="#000000">AlbumMapsController</text>
<polyline fill="none" stroke="#000000" points="0,-472.5 176,-472.5 "/>
<text text-anchor="start" x="8" y="-457.3" font-family="Times,serif" font-size="14.00" fill="#000000">create</text>
<text text-anchor="start" x="8" y="-442.3" font-family="Times,serif" font-size="14.00" fill="#000000">destroy</text>
<text text-anchor="start" x="8" y="-427.3" font-family="Times,serif" font-size="14.00" fill="#000000">index</text>
<text text-anchor="start" x="8" y="-412.3" font-family="Times,serif" font-size="14.00" fill="#000000">show</text>
<polyline fill="none" stroke="#000000" points="0,-404.5 176,-404.5 "/>
<polyline fill="none" stroke="#000000" points="0,-380.5 176,-380.5 "/>
<text text-anchor="start" x="8" y="-365.3" font-family="Times,serif" font-size="14.00" fill="#000000">album_map_params</text>
<text text-anchor="start" x="8" y="-350.3" font-family="Times,serif" font-size="14.00" fill="#000000">find_album_map</text>
</g>
<!-- InsightsController -->
<g id="node4" class="node">
<title>InsightsController</title>
<path fill="none" stroke="#000000" d="M31,-209.5C31,-209.5 156,-209.5 156,-209.5 162,-209.5 168,-215.5 168,-221.5 168,-221.5 168,-291.5 168,-291.5 168,-297.5 162,-303.5 156,-303.5 156,-303.5 31,-303.5 31,-303.5 25,-303.5 19,-297.5 19,-291.5 19,-291.5 19,-221.5 19,-221.5 19,-215.5 25,-209.5 31,-209.5"/>
<text text-anchor="middle" x="93.5" y="-288.3" font-family="Times,serif" font-size="14.00" fill="#000000">InsightsController</text>
<polyline fill="none" stroke="#000000" points="19,-280.5 168,-280.5 "/>
<text text-anchor="start" x="27" y="-265.3" font-family="Times,serif" font-size="14.00" fill="#000000">index</text>
<polyline fill="none" stroke="#000000" points="19,-257.5 168,-257.5 "/>
<polyline fill="none" stroke="#000000" points="19,-233.5 168,-233.5 "/>
</g>
<!-- TracksController -->
<g id="node5" class="node">
<title>TracksController</title>
<path fill="none" stroke="#000000" d="M316,-513.5C316,-513.5 432,-513.5 432,-513.5 438,-513.5 444,-519.5 444,-525.5 444,-525.5 444,-699.5 444,-699.5 444,-705.5 438,-711.5 432,-711.5 432,-711.5 316,-711.5 316,-711.5 310,-711.5 304,-705.5 304,-699.5 304,-699.5 304,-525.5 304,-525.5 304,-519.5 310,-513.5 316,-513.5"/>
<text text-anchor="middle" x="374" y="-696.3" font-family="Times,serif" font-size="14.00" fill="#000000">TracksController</text>
<polyline fill="none" stroke="#000000" points="304,-688.5 444,-688.5 "/>
<text text-anchor="start" x="312" y="-673.3" font-family="Times,serif" font-size="14.00" fill="#000000">create</text>
<text text-anchor="start" x="312" y="-658.3" font-family="Times,serif" font-size="14.00" fill="#000000">destroy</text>
<text text-anchor="start" x="312" y="-643.3" font-family="Times,serif" font-size="14.00" fill="#000000">index</text>
<text text-anchor="start" x="312" y="-628.3" font-family="Times,serif" font-size="14.00" fill="#000000">move</text>
<text text-anchor="start" x="312" y="-613.3" font-family="Times,serif" font-size="14.00" fill="#000000">moveable</text>
<text text-anchor="start" x="312" y="-598.3" font-family="Times,serif" font-size="14.00" fill="#000000">show</text>
<text text-anchor="start" x="312" y="-583.3" font-family="Times,serif" font-size="14.00" fill="#000000">update</text>
<polyline fill="none" stroke="#000000" points="304,-575.5 444,-575.5 "/>
<polyline fill="none" stroke="#000000" points="304,-551.5 444,-551.5 "/>
<text text-anchor="start" x="312" y="-536.3" font-family="Times,serif" font-size="14.00" fill="#000000">find_track</text>
<text text-anchor="start" x="312" y="-521.3" font-family="Times,serif" font-size="14.00" fill="#000000">track_params</text>
</g>
<!-- ApplicationController -->
<g id="node6" class="node">
<title>ApplicationController</title>
<path fill="none" stroke="#000000" d="M487,-190.5C487,-190.5 635,-190.5 635,-190.5 641,-190.5 647,-196.5 647,-202.5 647,-202.5 647,-377.5 647,-377.5 647,-383.5 641,-389.5 635,-389.5 635,-389.5 487,-389.5 487,-389.5 481,-389.5 475,-383.5 475,-377.5 475,-377.5 475,-202.5 475,-202.5 475,-196.5 481,-190.5 487,-190.5"/>
<text text-anchor="middle" x="561" y="-374.3" font-family="Times,serif" font-size="14.00" fill="#000000">ApplicationController</text>
<polyline fill="none" stroke="#000000" points="475,-366.5 647,-366.5 "/>
<text text-anchor="start" x="483" y="-351.3" font-family="Times,serif" font-size="14.00" fill="#000000">destroy_and_render</text>
<text text-anchor="start" x="483" y="-336.3" font-family="Times,serif" font-size="14.00" fill="#000000">normalize</text>
<text text-anchor="start" x="483" y="-321.3" font-family="Times,serif" font-size="14.00" fill="#000000">render_entities</text>
<text text-anchor="start" x="483" y="-306.3" font-family="Times,serif" font-size="14.00" fill="#000000">render_entity</text>
<text text-anchor="start" x="483" y="-291.3" font-family="Times,serif" font-size="14.00" fill="#000000">render_errors</text>
<text text-anchor="start" x="483" y="-276.3" font-family="Times,serif" font-size="14.00" fill="#000000">render_success</text>
<text text-anchor="start" x="483" y="-261.3" font-family="Times,serif" font-size="14.00" fill="#000000">save_and_render</text>
<text text-anchor="start" x="483" y="-246.3" font-family="Times,serif" font-size="14.00" fill="#000000">update_and_render</text>
<polyline fill="none" stroke="#000000" points="475,-238.5 647,-238.5 "/>
<polyline fill="none" stroke="#000000" points="475,-214.5 647,-214.5 "/>
</g>
<!-- AdditionsController -->
<g id="node7" class="node">
<title>AdditionsController</title>
<path fill="none" stroke="#000000" d="M582,-19.5C582,-19.5 716,-19.5 716,-19.5 722,-19.5 728,-25.5 728,-31.5 728,-31.5 728,-145.5 728,-145.5 728,-151.5 722,-157.5 716,-157.5 716,-157.5 582,-157.5 582,-157.5 576,-157.5 570,-151.5 570,-145.5 570,-145.5 570,-31.5 570,-31.5 570,-25.5 576,-19.5 582,-19.5"/>
<text text-anchor="middle" x="649" y="-142.3" font-family="Times,serif" font-size="14.00" fill="#000000">AdditionsController</text>
<polyline fill="none" stroke="#000000" points="570,-134.5 728,-134.5 "/>
<text text-anchor="start" x="578" y="-119.3" font-family="Times,serif" font-size="14.00" fill="#000000">create</text>
<text text-anchor="start" x="578" y="-104.3" font-family="Times,serif" font-size="14.00" fill="#000000">destroy</text>
<text text-anchor="start" x="578" y="-89.3" font-family="Times,serif" font-size="14.00" fill="#000000">index</text>
<text text-anchor="start" x="578" y="-74.3" font-family="Times,serif" font-size="14.00" fill="#000000">show</text>
<polyline fill="none" stroke="#000000" points="570,-66.5 728,-66.5 "/>
<polyline fill="none" stroke="#000000" points="570,-42.5 728,-42.5 "/>
<text text-anchor="start" x="578" y="-27.3" font-family="Times,serif" font-size="14.00" fill="#000000">find_addition</text>
</g>
<!-- AlbumsController -->
<g id="node8" class="node">
<title>AlbumsController</title>
<path fill="none" stroke="#000000" d="M487,-418.5C487,-418.5 607,-418.5 607,-418.5 613,-418.5 619,-424.5 619,-430.5 619,-430.5 619,-634.5 619,-634.5 619,-640.5 613,-646.5 607,-646.5 607,-646.5 487,-646.5 487,-646.5 481,-646.5 475,-640.5 475,-634.5 475,-634.5 475,-430.5 475,-430.5 475,-424.5 481,-418.5 487,-418.5"/>
<text text-anchor="middle" x="547" y="-631.3" font-family="Times,serif" font-size="14.00" fill="#000000">AlbumsController</text>
<polyline fill="none" stroke="#000000" points="475,-623.5 619,-623.5 "/>
<text text-anchor="start" x="483" y="-608.3" font-family="Times,serif" font-size="14.00" fill="#000000">create</text>
<text text-anchor="start" x="483" y="-593.3" font-family="Times,serif" font-size="14.00" fill="#000000">destroy</text>
<text text-anchor="start" x="483" y="-578.3" font-family="Times,serif" font-size="14.00" fill="#000000">index</text>
<text text-anchor="start" x="483" y="-563.3" font-family="Times,serif" font-size="14.00" fill="#000000">merge</text>
<text text-anchor="start" x="483" y="-548.3" font-family="Times,serif" font-size="14.00" fill="#000000">mergeable</text>
<text text-anchor="start" x="483" y="-533.3" font-family="Times,serif" font-size="14.00" fill="#000000">move</text>
<text text-anchor="start" x="483" y="-518.3" font-family="Times,serif" font-size="14.00" fill="#000000">moveable</text>
<text text-anchor="start" x="483" y="-503.3" font-family="Times,serif" font-size="14.00" fill="#000000">show</text>
<text text-anchor="start" x="483" y="-488.3" font-family="Times,serif" font-size="14.00" fill="#000000">update</text>
<polyline fill="none" stroke="#000000" points="475,-480.5 619,-480.5 "/>
<polyline fill="none" stroke="#000000" points="475,-456.5 619,-456.5 "/>
<text text-anchor="start" x="483" y="-441.3" font-family="Times,serif" font-size="14.00" fill="#000000">album_params</text>
<text text-anchor="start" x="483" y="-426.3" font-family="Times,serif" font-size="14.00" fill="#000000">find_album</text>
</g>
<!-- TaggingsController -->
<g id="node9" class="node">
<title>TaggingsController</title>
<path fill="none" stroke="#000000" d="M487,-684.5C487,-684.5 618,-684.5 618,-684.5 624,-684.5 630,-690.5 630,-696.5 630,-696.5 630,-781.5 630,-781.5 630,-787.5 624,-793.5 618,-793.5 618,-793.5 487,-793.5 487,-793.5 481,-793.5 475,-787.5 475,-781.5 475,-781.5 475,-696.5 475,-696.5 475,-690.5 481,-684.5 487,-684.5"/>
<text text-anchor="middle" x="552.5" y="-778.3" font-family="Times,serif" font-size="14.00" fill="#000000">TaggingsController</text>
<polyline fill="none" stroke="#000000" points="475,-770.5 630,-770.5 "/>
<text text-anchor="start" x="483" y="-755.3" font-family="Times,serif" font-size="14.00" fill="#000000">create</text>
<text text-anchor="start" x="483" y="-740.3" font-family="Times,serif" font-size="14.00" fill="#000000">destroy</text>
<polyline fill="none" stroke="#000000" points="475,-732.5 630,-732.5 "/>
<polyline fill="none" stroke="#000000" points="475,-708.5 630,-708.5 "/>
</g>
<!-- CreationsController -->
<g id="node10" class="node">
<title>CreationsController</title>
<path fill="none" stroke="#000000" d="M677,-418.5C677,-418.5 832,-418.5 832,-418.5 838,-418.5 844,-424.5 844,-430.5 844,-430.5 844,-514.5 844,-514.5 844,-520.5 838,-526.5 832,-526.5 832,-526.5 677,-526.5 677,-526.5 671,-526.5 665,-520.5 665,-514.5 665,-514.5 665,-430.5 665,-430.5 665,-424.5 671,-418.5 677,-418.5"/>
<text text-anchor="middle" x="754.5" y="-511.3" font-family="Times,serif" font-size="14.00" fill="#000000">CreationsController</text>
<polyline fill="none" stroke="#000000" points="665,-503.5 844,-503.5 "/>
<text text-anchor="start" x="673" y="-488.3" font-family="Times,serif" font-size="14.00" fill="#000000">create_spotify_playlist</text>
<text text-anchor="start" x="673" y="-473.3" font-family="Times,serif" font-size="14.00" fill="#000000">download</text>
<polyline fill="none" stroke="#000000" points="665,-465.5 844,-465.5 "/>
<polyline fill="none" stroke="#000000" points="665,-441.5 844,-441.5 "/>
<text text-anchor="start" x="673" y="-426.3" font-family="Times,serif" font-size="14.00" fill="#000000">generate_csv</text>
</g>
<!-- FormattingsController -->
<g id="node11" class="node">
<title>FormattingsController</title>
<path fill="none" stroke="#000000" d="M677,-570.5C677,-570.5 831,-570.5 831,-570.5 837,-570.5 843,-576.5 843,-582.5 843,-582.5 843,-667.5 843,-667.5 843,-673.5 837,-679.5 831,-679.5 831,-679.5 677,-679.5 677,-679.5 671,-679.5 665,-673.5 665,-667.5 665,-667.5 665,-582.5 665,-582.5 665,-576.5 671,-570.5 677,-570.5"/>
<text text-anchor="middle" x="754" y="-664.3" font-family="Times,serif" font-size="14.00" fill="#000000">FormattingsController</text>
<polyline fill="none" stroke="#000000" points="665,-656.5 843,-656.5 "/>
<text text-anchor="start" x="673" y="-641.3" font-family="Times,serif" font-size="14.00" fill="#000000">create</text>
<text text-anchor="start" x="673" y="-626.3" font-family="Times,serif" font-size="14.00" fill="#000000">destroy</text>
<polyline fill="none" stroke="#000000" points="665,-618.5 843,-618.5 "/>
<polyline fill="none" stroke="#000000" points="665,-594.5 843,-594.5 "/>
</g>
<!-- ArtistsController -->
<g id="node12" class="node">
<title>ArtistsController</title>
<path fill="none" stroke="#000000" d="M145,-532.5C145,-532.5 260,-532.5 260,-532.5 266,-532.5 272,-538.5 272,-544.5 272,-544.5 272,-718.5 272,-718.5 272,-724.5 266,-730.5 260,-730.5 260,-730.5 145,-730.5 145,-730.5 139,-730.5 133,-724.5 133,-718.5 133,-718.5 133,-544.5 133,-544.5 133,-538.5 139,-532.5 145,-532.5"/>
<text text-anchor="middle" x="202.5" y="-715.3" font-family="Times,serif" font-size="14.00" fill="#000000">ArtistsController</text>
<polyline fill="none" stroke="#000000" points="133,-707.5 272,-707.5 "/>
<text text-anchor="start" x="141" y="-692.3" font-family="Times,serif" font-size="14.00" fill="#000000">create</text>
<text text-anchor="start" x="141" y="-677.3" font-family="Times,serif" font-size="14.00" fill="#000000">destroy</text>
<text text-anchor="start" x="141" y="-662.3" font-family="Times,serif" font-size="14.00" fill="#000000">index</text>
<text text-anchor="start" x="141" y="-647.3" font-family="Times,serif" font-size="14.00" fill="#000000">merge</text>
<text text-anchor="start" x="141" y="-632.3" font-family="Times,serif" font-size="14.00" fill="#000000">mergeable</text>
<text text-anchor="start" x="141" y="-617.3" font-family="Times,serif" font-size="14.00" fill="#000000">show</text>
<text text-anchor="start" x="141" y="-602.3" font-family="Times,serif" font-size="14.00" fill="#000000">update</text>
<polyline fill="none" stroke="#000000" points="133,-594.5 272,-594.5 "/>
<polyline fill="none" stroke="#000000" points="133,-570.5 272,-570.5 "/>
<text text-anchor="start" x="141" y="-555.3" font-family="Times,serif" font-size="14.00" fill="#000000">artist_params</text>
<text text-anchor="start" x="141" y="-540.3" font-family="Times,serif" font-size="14.00" fill="#000000">find_artist</text>
</g>
<!-- BackgroundController -->
<g id="node13" class="node">
<title>BackgroundController</title>
<path fill="none" stroke="#000000" d="M221,-209.5C221,-209.5 420,-209.5 420,-209.5 426,-209.5 432,-215.5 432,-221.5 432,-221.5 432,-456.5 432,-456.5 432,-462.5 426,-468.5 420,-468.5 420,-468.5 221,-468.5 221,-468.5 215,-468.5 209,-462.5 209,-456.5 209,-456.5 209,-221.5 209,-221.5 209,-215.5 215,-209.5 221,-209.5"/>
<text text-anchor="middle" x="320.5" y="-453.3" font-family="Times,serif" font-size="14.00" fill="#000000">BackgroundController</text>
<polyline fill="none" stroke="#000000" points="209,-445.5 432,-445.5 "/>
<text text-anchor="start" x="217" y="-430.3" font-family="Times,serif" font-size="14.00" fill="#000000">add_tag</text>
<text text-anchor="start" x="217" y="-415.3" font-family="Times,serif" font-size="14.00" fill="#000000">add_tags_to_album</text>
<text text-anchor="start" x="217" y="-400.3" font-family="Times,serif" font-size="14.00" fill="#000000">add_tags_to_artist</text>
<text text-anchor="start" x="217" y="-385.3" font-family="Times,serif" font-size="14.00" fill="#000000">change_session</text>
<text text-anchor="start" x="217" y="-370.3" font-family="Times,serif" font-size="14.00" fill="#000000">clean_collection</text>
<text text-anchor="start" x="217" y="-355.3" font-family="Times,serif" font-size="14.00" fill="#000000">find_tags</text>
<text text-anchor="start" x="217" y="-340.3" font-family="Times,serif" font-size="14.00" fill="#000000">find_tags_for_albums_tracks</text>
<text text-anchor="start" x="217" y="-325.3" font-family="Times,serif" font-size="14.00" fill="#000000">find_tags_for_artists_tracks</text>
<text text-anchor="start" x="217" y="-310.3" font-family="Times,serif" font-size="14.00" fill="#000000">find_tags_for_every_track</text>
<text text-anchor="start" x="217" y="-295.3" font-family="Times,serif" font-size="14.00" fill="#000000">get_album_art</text>
<text text-anchor="start" x="217" y="-280.3" font-family="Times,serif" font-size="14.00" fill="#000000">get_artist_art</text>
<text text-anchor="start" x="217" y="-265.3" font-family="Times,serif" font-size="14.00" fill="#000000">get_session</text>
<polyline fill="none" stroke="#000000" points="209,-257.5 432,-257.5 "/>
<polyline fill="none" stroke="#000000" points="209,-233.5 432,-233.5 "/>
</g>
</g>
</svg>
