<?xml version="1.0" encoding="UTF-8" standalone="no"?>
<!DOCTYPE svg PUBLIC "-//W3C//DTD SVG 1.1//EN"
 "http://www.w3.org/Graphics/SVG/1.1/DTD/svg11.dtd">
<!-- Generated by graphviz version 2.40.1 (0)
 -->
<!-- Title: models_diagram Pages: 1 -->
<svg width="611pt" height="374pt"
 viewBox="0.00 0.00 611.05 374.00" xmlns="http://www.w3.org/2000/svg" xmlns:xlink="http://www.w3.org/1999/xlink">
<g id="graph0" class="graph" transform="scale(1 1) rotate(0) translate(4 370)">
<title>models_diagram</title>
<polygon fill="transparent" stroke="transparent" points="-4,4 -4,-370 607.0456,-370 607.0456,4 -4,4"/>
<!-- _diagram_info -->
<g id="node1" class="node">
<title>_diagram_info</title>
<text text-anchor="start" x="8" y="-351.6" font-family="Times,serif" font-size="13.00" fill="#000000">Models diagram</text>
<text text-anchor="start" x="8" y="-337.6" font-family="Times,serif" font-size="13.00" fill="#000000">Date: Oct 30 2019 &#45; 13:01</text>
<text text-anchor="start" x="8" y="-323.6" font-family="Times,serif" font-size="13.00" fill="#000000">Migration version: 20191019013207</text>
<text text-anchor="start" x="8" y="-309.6" font-family="Times,serif" font-size="13.00" fill="#000000">Generated by RailRoady 1.5.3</text>
<text text-anchor="start" x="8" y="-295.6" font-family="Times,serif" font-size="13.00" fill="#000000">http://railroady.prestonlee.com</text>
</g>
<!-- Formatting -->
<g id="node2" class="node">
<title>Formatting</title>
<ellipse fill="none" stroke="#000000" cx="333" cy="-18" rx="63.0888" ry="18"/>
<text text-anchor="middle" x="333" y="-14.3" font-family="Times,serif" font-size="14.00" fill="#000000">Formatting</text>
</g>
<!-- Tag -->
<g id="node3" class="node">
<title>Tag</title>
<ellipse fill="none" stroke="#000000" cx="185" cy="-234" rx="27.8951" ry="18"/>
<text text-anchor="middle" x="185" y="-230.3" font-family="Times,serif" font-size="14.00" fill="#000000">Tag</text>
</g>
<!-- Tagging -->
<g id="node8" class="node">
<title>Tagging</title>
<ellipse fill="none" stroke="#000000" cx="185" cy="-90" rx="48.1917" ry="18"/>
<text text-anchor="middle" x="185" y="-86.3" font-family="Times,serif" font-size="14.00" fill="#000000">Tagging</text>
</g>
<!-- Tag&#45;&gt;Tagging -->
<g id="edge1" class="edge">
<title>Tag&#45;&gt;Tagging</title>
<path fill="none" stroke="#4b58b0" d="M185,-207.7351C185,-182.4642 185,-144.3666 185,-118.4018"/>
<ellipse fill="none" stroke="#4b58b0" cx="185" cy="-211.7623" rx="4" ry="4"/>
<polygon fill="#4b58b0" stroke="#4b58b0" points="185.0001,-118.0896 189.5,-108.0896 185,-113.0896 185,-108.0896 185,-108.0896 185,-108.0896 185,-113.0896 180.5,-108.0897 185.0001,-118.0896 185.0001,-118.0896"/>
</g>
<!-- Track -->
<g id="node10" class="node">
<title>Track</title>
<ellipse fill="none" stroke="#000000" cx="256" cy="-162" rx="38.1938" ry="18"/>
<text text-anchor="middle" x="256" y="-158.3" font-family="Times,serif" font-size="14.00" fill="#000000">Track</text>
</g>
<!-- Tag&#45;&gt;Track -->
<g id="edge2" class="edge">
<title>Tag&#45;&gt;Track</title>
<path fill="none" stroke="#c5b7c8" d="M207.3238,-211.3618C215.3648,-203.2075 224.4569,-193.9873 232.5882,-185.7415"/>
<polygon fill="#c5b7c8" stroke="#c5b7c8" points="207.0788,-211.6103 196.8531,-215.571 203.568,-215.1705 200.0573,-218.7307 200.0573,-218.7307 200.0573,-218.7307 203.568,-215.1705 203.2614,-221.8903 207.0788,-211.6103 207.0788,-211.6103"/>
<polygon fill="#c5b7c8" stroke="#c5b7c8" points="232.7064,-185.6217 242.932,-181.661 236.2171,-182.0615 239.7279,-178.5013 239.7279,-178.5013 239.7279,-178.5013 236.2171,-182.0615 236.5237,-175.3417 232.7064,-185.6217 232.7064,-185.6217"/>
</g>
<!-- ApplicationRecord -->
<g id="node4" class="node">
<title>ApplicationRecord</title>
<ellipse fill="none" stroke="#000000" cx="463" cy="-327" rx="96.6831" ry="18"/>
<text text-anchor="middle" x="463" y="-323.3" font-family="Times,serif" font-size="14.00" fill="#000000">ApplicationRecord</text>
</g>
<!-- ArtistMap -->
<g id="node5" class="node">
<title>ArtistMap</title>
<ellipse fill="none" stroke="#000000" cx="427" cy="-234" rx="57.6901" ry="18"/>
<text text-anchor="middle" x="427" y="-230.3" font-family="Times,serif" font-size="14.00" fill="#000000">ArtistMap</text>
</g>
<!-- Addition -->
<g id="node6" class="node">
<title>Addition</title>
<ellipse fill="none" stroke="#000000" cx="553" cy="-234" rx="50.0912" ry="18"/>
<text text-anchor="middle" x="553" y="-230.3" font-family="Times,serif" font-size="14.00" fill="#000000">Addition</text>
</g>
<!-- Addition&#45;&gt;Formatting -->
<g id="edge3" class="edge">
<title>Addition&#45;&gt;Formatting</title>
<path fill="none" stroke="#f1a80c" d="M529.8599,-211.2806C488.222,-170.3998 401.0184,-84.7817 358.038,-42.5828"/>
<ellipse fill="none" stroke="#f1a80c" cx="532.8827" cy="-214.2485" rx="4" ry="4"/>
<polygon fill="#f1a80c" stroke="#f1a80c" points="357.9296,-42.4763 353.9466,-32.2594 354.3618,-38.9734 350.7939,-35.4704 350.7939,-35.4704 350.7939,-35.4704 354.3618,-38.9734 347.6413,-38.6815 357.9296,-42.4763 357.9296,-42.4763"/>
</g>
<!-- Addition&#45;&gt;Track -->
<g id="edge4" class="edge">
<title>Addition&#45;&gt;Track</title>
<path fill="none" stroke="#7ecb0f" d="M505.849,-219.1141C501.8558,-218.0061 497.8672,-216.9513 494,-216 410.1172,-195.3652 386.1137,-203.5421 303,-180 300.2021,-179.2075 297.3373,-178.3168 294.4703,-177.3669"/>
<polygon fill="#7ecb0f" stroke="#7ecb0f" points="506.1069,-219.1881 514.4752,-226.2748 510.9124,-220.569 515.718,-221.9498 515.718,-221.9498 515.718,-221.9498 510.9124,-220.569 516.9607,-217.6248 506.1069,-219.1881 506.1069,-219.1881"/>
<polygon fill="#7ecb0f" stroke="#7ecb0f" points="294.2408,-177.2862 286.3025,-169.7208 289.5245,-175.6258 284.8082,-173.9655 284.8082,-173.9655 284.8082,-173.9655 289.5245,-175.6258 283.3139,-178.2102 294.2408,-177.2862 294.2408,-177.2862"/>
</g>
<!-- Album -->
<g id="node7" class="node">
<title>Album</title>
<ellipse fill="none" stroke="#000000" cx="310" cy="-234" rx="40.8928" ry="18"/>
<text text-anchor="middle" x="310" y="-230.3" font-family="Times,serif" font-size="14.00" fill="#000000">Album</text>
</g>
<!-- AlbumMap -->
<g id="node9" class="node">
<title>AlbumMap</title>
<ellipse fill="none" stroke="#000000" cx="374" cy="-162" rx="61.99" ry="18"/>
<text text-anchor="middle" x="374" y="-158.3" font-family="Times,serif" font-size="14.00" fill="#000000">AlbumMap</text>
</g>
<!-- Album&#45;&gt;AlbumMap -->
<g id="edge5" class="edge">
<title>Album&#45;&gt;AlbumMap</title>
<path fill="none" stroke="#25ab0d" d="M330.5949,-210.8308C337.2472,-203.3469 344.6561,-195.0119 351.4426,-187.3771"/>
<ellipse fill="none" stroke="#25ab0d" cx="327.8246" cy="-213.9474" rx="4" ry="4"/>
<polygon fill="#25ab0d" stroke="#25ab0d" points="351.8535,-186.9148 361.8605,-182.4303 355.1753,-183.1777 358.4972,-179.4407 358.4972,-179.4407 358.4972,-179.4407 355.1753,-183.1777 355.1338,-176.451 351.8535,-186.9148 351.8535,-186.9148"/>
</g>
<!-- Album&#45;&gt;Track -->
<g id="edge6" class="edge">
<title>Album&#45;&gt;Track</title>
<path fill="none" stroke="#ebe29a" d="M291.9191,-209.8921C286.5112,-202.6816 280.5656,-194.7542 275.0949,-187.4598"/>
<ellipse fill="none" stroke="#ebe29a" cx="294.5281" cy="-213.3708" rx="4" ry="4"/>
<polygon fill="#ebe29a" stroke="#ebe29a" points="274.9516,-187.2687 272.5515,-176.5687 271.9515,-183.2687 268.9515,-179.2687 268.9515,-179.2687 268.9515,-179.2687 271.9515,-183.2687 265.3515,-181.9687 274.9516,-187.2687 274.9516,-187.2687"/>
</g>
<!-- Track&#45;&gt;Formatting -->
<g id="edge8" class="edge">
<title>Track&#45;&gt;Formatting</title>
<path fill="none" stroke="#876672" d="M259.375,-135.6167C262.6153,-116.9121 268.745,-91.7338 280,-72 286.3046,-60.946 295.4273,-50.5252 304.3324,-41.8414"/>
<ellipse fill="none" stroke="#876672" cx="258.7127" cy="-139.7625" rx="4" ry="4"/>
<polygon fill="#876672" stroke="#876672" points="304.3793,-41.7976 314.7629,-38.2717 308.0371,-38.3887 311.6948,-34.9797 311.6948,-34.9797 311.6948,-34.9797 308.0371,-38.3887 308.6268,-31.6877 304.3793,-41.7976 304.3793,-41.7976"/>
</g>
<!-- Track&#45;&gt;Tagging -->
<g id="edge7" class="edge">
<title>Track&#45;&gt;Tagging</title>
<path fill="none" stroke="#7e2407" d="M234.0147,-139.705C226.0601,-131.6384 217.0413,-122.4926 208.928,-114.265"/>
<ellipse fill="none" stroke="#7e2407" cx="237.0804" cy="-142.8139" rx="4" ry="4"/>
<polygon fill="#7e2407" stroke="#7e2407" points="208.8095,-114.1449 204.9922,-103.8648 205.2988,-110.5847 201.7881,-107.0245 201.7881,-107.0245 201.7881,-107.0245 205.2988,-110.5847 198.5839,-110.1842 208.8095,-114.1449 208.8095,-114.1449"/>
</g>
<!-- Format -->
<g id="node11" class="node">
<title>Format</title>
<ellipse fill="none" stroke="#000000" cx="333" cy="-90" rx="44.393" ry="18"/>
<text text-anchor="middle" x="333" y="-86.3" font-family="Times,serif" font-size="14.00" fill="#000000">Format</text>
</g>
<!-- Track&#45;&gt;Format -->
<g id="edge9" class="edge">
<title>Track&#45;&gt;Format</title>
<path fill="none" stroke="#486ab7" d="M280.9057,-138.7115C289.5884,-130.5926 299.3295,-121.4841 308.0184,-113.3595"/>
<polygon fill="#486ab7" stroke="#486ab7" points="280.7768,-138.8321 270.399,-142.3752 277.1246,-142.2471 273.4725,-145.6621 273.4725,-145.6621 273.4725,-145.6621 277.1246,-142.2471 276.546,-148.949 280.7768,-138.8321 280.7768,-138.8321"/>
<polygon fill="#486ab7" stroke="#486ab7" points="308.0258,-113.3525 318.4036,-109.8094 311.678,-109.9375 315.3301,-106.5225 315.3301,-106.5225 315.3301,-106.5225 311.678,-109.9375 312.2566,-103.2356 308.0258,-113.3525 308.0258,-113.3525"/>
</g>
<!-- Format&#45;&gt;Formatting -->
<g id="edge10" class="edge">
<title>Format&#45;&gt;Formatting</title>
<path fill="none" stroke="#e653ee" d="M333,-63.8144C333,-58.2775 333,-52.4053 333,-46.7785"/>
<ellipse fill="none" stroke="#e653ee" cx="333" cy="-67.8314" rx="4" ry="4"/>
<polygon fill="#e653ee" stroke="#e653ee" points="333.0001,-46.4133 337.5,-36.4132 333,-41.4133 333,-36.4133 333,-36.4133 333,-36.4133 333,-41.4133 328.5,-36.4133 333.0001,-46.4133 333.0001,-46.4133"/>
</g>
<!-- Artist -->
<g id="node12" class="node">
<title>Artist</title>
<ellipse fill="none" stroke="#000000" cx="310" cy="-327" rx="37.8943" ry="18"/>
<text text-anchor="middle" x="310" y="-323.3" font-family="Times,serif" font-size="14.00" fill="#000000">Artist</text>
</g>
<!-- Artist&#45;&gt;ArtistMap -->
<g id="edge11" class="edge">
<title>Artist&#45;&gt;ArtistMap</title>
<path fill="none" stroke="#f9509f" d="M334.9195,-306.0435C342.0121,-300.1549 349.7741,-293.7821 357,-288 369.853,-277.7151 384.2226,-266.57 396.5823,-257.0906"/>
<ellipse fill="none" stroke="#f9509f" cx="331.7019" cy="-308.7241" rx="4" ry="4"/>
<polygon fill="#f9509f" stroke="#f9509f" points="396.8313,-256.9002 407.5082,-254.3996 400.8029,-253.8627 404.7745,-250.8251 404.7745,-250.8251 404.7745,-250.8251 400.8029,-253.8627 402.0407,-247.2507 396.8313,-256.9002 396.8313,-256.9002"/>
</g>
<!-- Artist&#45;&gt;Album -->
<g id="edge12" class="edge">
<title>Artist&#45;&gt;Album</title>
<path fill="none" stroke="#3d60db" d="M310,-300.4432C310,-288.4479 310,-274.268 310,-262.0949"/>
<ellipse fill="none" stroke="#3d60db" cx="310" cy="-304.6262" rx="4" ry="4"/>
<polygon fill="#3d60db" stroke="#3d60db" points="310.0001,-262.0192 314.5,-252.0191 310,-257.0192 310,-252.0192 310,-252.0192 310,-252.0192 310,-257.0192 305.5,-252.0192 310.0001,-262.0192 310.0001,-262.0192"/>
</g>
<!-- Artist&#45;&gt;Track -->
<g id="edge13" class="edge">
<title>Artist&#45;&gt;Track</title>
<path fill="none" stroke="#089e73" d="M289.6837,-303.7937C278.7381,-289.8015 266.2312,-271.0447 260,-252 253.4848,-232.0873 252.6928,-208.371 253.4183,-190.2841"/>
<ellipse fill="none" stroke="#089e73" cx="292.3866" cy="-307.1462" rx="4" ry="4"/>
<polygon fill="#089e73" stroke="#089e73" points="253.4301,-190.0791 258.5012,-180.3562 253.7194,-185.0875 254.0087,-180.0959 254.0087,-180.0959 254.0087,-180.0959 253.7194,-185.0875 249.5162,-179.8355 253.4301,-190.0791 253.4301,-190.0791"/>
</g>
</g>
</svg>
