<?xml version="1.0" encoding="UTF-8" standalone="no"?>
<!DOCTYPE svg PUBLIC "-//W3C//DTD SVG 1.1//EN"
 "http://www.w3.org/Graphics/SVG/1.1/DTD/svg11.dtd">
<!-- Generated by graphviz version 2.40.1 (0)
 -->
<!-- Title: models_diagram Pages: 1 -->
<svg width="1297pt" height="732pt"
 viewBox="0.00 0.00 1297.00 732.00" xmlns="http://www.w3.org/2000/svg" xmlns:xlink="http://www.w3.org/1999/xlink">
<g id="graph0" class="graph" transform="scale(1 1) rotate(0) translate(4 728)">
<title>models_diagram</title>
<polygon fill="transparent" stroke="transparent" points="-4,4 -4,-728 1293,-728 1293,4 -4,4"/>
<!-- _diagram_info -->
<g id="node1" class="node">
<title>_diagram_info</title>
<text text-anchor="start" x="127.5" y="-695.1" font-family="Times,serif" font-size="13.00" fill="#000000">Models diagram</text>
<text text-anchor="start" x="127.5" y="-681.1" font-family="Times,serif" font-size="13.00" fill="#000000">Date: Oct 30 2019 &#45; 13:01</text>
<text text-anchor="start" x="127.5" y="-667.1" font-family="Times,serif" font-size="13.00" fill="#000000">Migration version: 20191019013207</text>
<text text-anchor="start" x="127.5" y="-653.1" font-family="Times,serif" font-size="13.00" fill="#000000">Generated by RailRoady 1.5.3</text>
<text text-anchor="start" x="127.5" y="-639.1" font-family="Times,serif" font-size="13.00" fill="#000000">http://railroady.prestonlee.com</text>
</g>
<!-- Formatting -->
<g id="node2" class="node">
<title>Formatting</title>
<path fill="none" stroke="#000000" d="M404,-.5C404,-.5 715,-.5 715,-.5 721,-.5 727,-6.5 727,-12.5 727,-12.5 727,-109.5 727,-109.5 727,-115.5 721,-121.5 715,-121.5 715,-121.5 404,-121.5 404,-121.5 398,-121.5 392,-115.5 392,-109.5 392,-109.5 392,-12.5 392,-12.5 392,-6.5 398,-.5 404,-.5"/>
<text text-anchor="middle" x="559.5" y="-106.3" font-family="Times,serif" font-size="14.00" fill="#000000">Formatting</text>
<polyline fill="none" stroke="#000000" points="392,-98.5 727,-98.5 "/>
<text text-anchor="start" x="400" y="-83.3" font-family="Times,serif" font-size="14.00" fill="#000000">id :bigint</text>
<text text-anchor="start" x="400" y="-68.3" font-family="Times,serif" font-size="14.00" fill="#000000">format_id :bigint</text>
<text text-anchor="start" x="400" y="-53.3" font-family="Times,serif" font-size="14.00" fill="#000000">track_id :bigint</text>
<text text-anchor="start" x="400" y="-38.3" font-family="Times,serif" font-size="14.00" fill="#000000">addition_id :bigint</text>
<text text-anchor="start" x="400" y="-23.3" font-family="Times,serif" font-size="14.00" fill="#000000">created_at :timestamp(6) without time zone</text>
<text text-anchor="start" x="400" y="-8.3" font-family="Times,serif" font-size="14.00" fill="#000000">updated_at :timestamp(6) without time zone</text>
</g>
<!-- Tag -->
<g id="node3" class="node">
<title>Tag</title>
<path fill="none" stroke="#000000" d="M12,-474.5C12,-474.5 323,-474.5 323,-474.5 329,-474.5 335,-480.5 335,-486.5 335,-486.5 335,-553.5 335,-553.5 335,-559.5 329,-565.5 323,-565.5 323,-565.5 12,-565.5 12,-565.5 6,-565.5 0,-559.5 0,-553.5 0,-553.5 0,-486.5 0,-486.5 0,-480.5 6,-474.5 12,-474.5"/>
<text text-anchor="middle" x="167.5" y="-550.3" font-family="Times,serif" font-size="14.00" fill="#000000">Tag</text>
<polyline fill="none" stroke="#000000" points="0,-542.5 335,-542.5 "/>
<text text-anchor="start" x="8" y="-527.3" font-family="Times,serif" font-size="14.00" fill="#000000">id :bigint</text>
<text text-anchor="start" x="8" y="-512.3" font-family="Times,serif" font-size="14.00" fill="#000000">name :character varying</text>
<text text-anchor="start" x="8" y="-497.3" font-family="Times,serif" font-size="14.00" fill="#000000">created_at :timestamp(6) without time zone</text>
<text text-anchor="start" x="8" y="-482.3" font-family="Times,serif" font-size="14.00" fill="#000000">updated_at :timestamp(6) without time zone</text>
</g>
<!-- Tagging -->
<g id="node8" class="node">
<title>Tagging</title>
<path fill="none" stroke="#000000" d="M12,-158.5C12,-158.5 323,-158.5 323,-158.5 329,-158.5 335,-164.5 335,-170.5 335,-170.5 335,-252.5 335,-252.5 335,-258.5 329,-264.5 323,-264.5 323,-264.5 12,-264.5 12,-264.5 6,-264.5 0,-258.5 0,-252.5 0,-252.5 0,-170.5 0,-170.5 0,-164.5 6,-158.5 12,-158.5"/>
<text text-anchor="middle" x="167.5" y="-249.3" font-family="Times,serif" font-size="14.00" fill="#000000">Tagging</text>
<polyline fill="none" stroke="#000000" points="0,-241.5 335,-241.5 "/>
<text text-anchor="start" x="8" y="-226.3" font-family="Times,serif" font-size="14.00" fill="#000000">id :bigint</text>
<text text-anchor="start" x="8" y="-211.3" font-family="Times,serif" font-size="14.00" fill="#000000">track_id :bigint</text>
<text text-anchor="start" x="8" y="-196.3" font-family="Times,serif" font-size="14.00" fill="#000000">tag_id :bigint</text>
<text text-anchor="start" x="8" y="-181.3" font-family="Times,serif" font-size="14.00" fill="#000000">created_at :timestamp(6) without time zone</text>
<text text-anchor="start" x="8" y="-166.3" font-family="Times,serif" font-size="14.00" fill="#000000">updated_at :timestamp(6) without time zone</text>
</g>
<!-- Tag&#45;&gt;Tagging -->
<g id="edge1" class="edge">
<title>Tag&#45;&gt;Tagging</title>
<path fill="none" stroke="#b39595" d="M167.5,-466.3714C167.5,-413.1025 167.5,-331.4296 167.5,-274.9605"/>
<ellipse fill="none" stroke="#b39595" cx="167.5" cy="-470.4798" rx="4" ry="4"/>
<polygon fill="#b39595" stroke="#b39595" points="167.5001,-274.7223 172,-264.7223 167.5,-269.7223 167.5,-264.7223 167.5,-264.7223 167.5,-264.7223 167.5,-269.7223 163,-264.7224 167.5001,-274.7223 167.5001,-274.7223"/>
</g>
<!-- Track -->
<g id="node10" class="node">
<title>Track</title>
<path fill="none" stroke="#000000" d="M208,-301.5C208,-301.5 519,-301.5 519,-301.5 525,-301.5 531,-307.5 531,-313.5 531,-313.5 531,-410.5 531,-410.5 531,-416.5 525,-422.5 519,-422.5 519,-422.5 208,-422.5 208,-422.5 202,-422.5 196,-416.5 196,-410.5 196,-410.5 196,-313.5 196,-313.5 196,-307.5 202,-301.5 208,-301.5"/>
<text text-anchor="middle" x="363.5" y="-407.3" font-family="Times,serif" font-size="14.00" fill="#000000">Track</text>
<polyline fill="none" stroke="#000000" points="196,-399.5 531,-399.5 "/>
<text text-anchor="start" x="204" y="-384.3" font-family="Times,serif" font-size="14.00" fill="#000000">id :bigint</text>
<text text-anchor="start" x="204" y="-369.3" font-family="Times,serif" font-size="14.00" fill="#000000">album_id :bigint</text>
<text text-anchor="start" x="204" y="-354.3" font-family="Times,serif" font-size="14.00" fill="#000000">artist_id :bigint</text>
<text text-anchor="start" x="204" y="-339.3" font-family="Times,serif" font-size="14.00" fill="#000000">title :character varying</text>
<text text-anchor="start" x="204" y="-324.3" font-family="Times,serif" font-size="14.00" fill="#000000">created_at :timestamp(6) without time zone</text>
<text text-anchor="start" x="204" y="-309.3" font-family="Times,serif" font-size="14.00" fill="#000000">updated_at :timestamp(6) without time zone</text>
</g>
<!-- Tag&#45;&gt;Track -->
<g id="edge2" class="edge">
<title>Tag&#45;&gt;Track</title>
<path fill="none" stroke="#ca3af0" d="M232.3033,-467.7606C247.7165,-455.3357 264.3719,-441.9094 280.4749,-428.9284"/>
<polygon fill="#ca3af0" stroke="#ca3af0" points="231.9767,-468.0238 221.3671,-470.7964 228.084,-471.1618 224.1913,-474.2999 224.1913,-474.2999 224.1913,-474.2999 228.084,-471.1618 227.0155,-477.8033 231.9767,-468.0238 231.9767,-468.0238"/>
<polygon fill="#ca3af0" stroke="#ca3af0" points="280.5424,-428.874 291.152,-426.1014 284.4351,-425.736 288.3278,-422.598 288.3278,-422.598 288.3278,-422.598 284.4351,-425.736 285.5036,-419.0946 280.5424,-428.874 280.5424,-428.874"/>
</g>
<!-- ApplicationRecord -->
<g id="node4" class="node">
<title>ApplicationRecord</title>
<ellipse fill="none" stroke="#000000" cx="841.5" cy="-670.5" rx="96.6831" ry="18"/>
<text text-anchor="middle" x="841.5" y="-666.8" font-family="Times,serif" font-size="14.00" fill="#000000">ApplicationRecord</text>
</g>
<!-- ArtistMap -->
<g id="node5" class="node">
<title>ArtistMap</title>
<path fill="none" stroke="#000000" d="M757,-482C757,-482 924,-482 924,-482 930,-482 936,-488 936,-494 936,-494 936,-546 936,-546 936,-552 930,-558 924,-558 924,-558 757,-558 757,-558 751,-558 745,-552 745,-546 745,-546 745,-494 745,-494 745,-488 751,-482 757,-482"/>
<text text-anchor="middle" x="840.5" y="-542.8" font-family="Times,serif" font-size="14.00" fill="#000000">ArtistMap</text>
<polyline fill="none" stroke="#000000" points="745,-535 936,-535 "/>
<text text-anchor="start" x="753" y="-519.8" font-family="Times,serif" font-size="14.00" fill="#000000">id :bigint</text>
<text text-anchor="start" x="753" y="-504.8" font-family="Times,serif" font-size="14.00" fill="#000000">input :character varying</text>
<text text-anchor="start" x="753" y="-489.8" font-family="Times,serif" font-size="14.00" fill="#000000">artist_id :bigint</text>
</g>
<!-- Addition -->
<g id="node6" class="node">
<title>Addition</title>
<path fill="none" stroke="#000000" d="M966,-467C966,-467 1277,-467 1277,-467 1283,-467 1289,-473 1289,-479 1289,-479 1289,-561 1289,-561 1289,-567 1283,-573 1277,-573 1277,-573 966,-573 966,-573 960,-573 954,-567 954,-561 954,-561 954,-479 954,-479 954,-473 960,-467 966,-467"/>
<text text-anchor="middle" x="1121.5" y="-557.8" font-family="Times,serif" font-size="14.00" fill="#000000">Addition</text>
<polyline fill="none" stroke="#000000" points="954,-550 1289,-550 "/>
<text text-anchor="start" x="962" y="-534.8" font-family="Times,serif" font-size="14.00" fill="#000000">id :bigint</text>
<text text-anchor="start" x="962" y="-519.8" font-family="Times,serif" font-size="14.00" fill="#000000">addition_type :character varying</text>
<text text-anchor="start" x="962" y="-504.8" font-family="Times,serif" font-size="14.00" fill="#000000">id_string :character varying</text>
<text text-anchor="start" x="962" y="-489.8" font-family="Times,serif" font-size="14.00" fill="#000000">created_at :timestamp(6) without time zone</text>
<text text-anchor="start" x="962" y="-474.8" font-family="Times,serif" font-size="14.00" fill="#000000">updated_at :timestamp(6) without time zone</text>
</g>
<!-- Addition&#45;&gt;Formatting -->
<g id="edge3" class="edge">
<title>Addition&#45;&gt;Formatting</title>
<path fill="none" stroke="#72277f" d="M1067.8273,-460.4203C997.0177,-384.0743 866.138,-250.5584 736.5,-158 721.3218,-147.1631 704.8043,-136.6397 688.1604,-126.7676"/>
<ellipse fill="none" stroke="#72277f" cx="1070.9393" cy="-463.7849" rx="4" ry="4"/>
<polygon fill="#72277f" stroke="#72277f" points="688.0803,-126.7208 681.7261,-117.7835 683.766,-124.1936 679.4517,-121.6664 679.4517,-121.6664 679.4517,-121.6664 683.766,-124.1936 677.1772,-125.5493 688.0803,-126.7208 688.0803,-126.7208"/>
</g>
<!-- Addition&#45;&gt;Track -->
<g id="edge4" class="edge">
<title>Addition&#45;&gt;Track</title>
<path fill="none" stroke="#777349" d="M967.2781,-464.1839C959.9586,-462.2819 952.6739,-460.5377 945.5,-459 771.9958,-421.8111 719.1338,-459.3133 541.33,-423.0396"/>
<polygon fill="#777349" stroke="#777349" points="967.6164,-464.2748 976.1053,-471.2167 972.445,-465.5729 977.2736,-466.871 977.2736,-466.871 977.2736,-466.871 972.445,-465.5729 978.4418,-462.5252 967.6164,-464.2748 967.6164,-464.2748"/>
<polygon fill="#777349" stroke="#777349" points="541.176,-423.0075 532.3081,-416.5568 536.2817,-421.9845 531.3875,-420.9616 531.3875,-420.9616 531.3875,-420.9616 536.2817,-421.9845 530.4668,-425.3664 541.176,-423.0075 541.176,-423.0075"/>
</g>
<!-- Album -->
<g id="node7" class="node">
<title>Album</title>
<path fill="none" stroke="#000000" d="M404,-459.5C404,-459.5 715,-459.5 715,-459.5 721,-459.5 727,-465.5 727,-471.5 727,-471.5 727,-568.5 727,-568.5 727,-574.5 721,-580.5 715,-580.5 715,-580.5 404,-580.5 404,-580.5 398,-580.5 392,-574.5 392,-568.5 392,-568.5 392,-471.5 392,-471.5 392,-465.5 398,-459.5 404,-459.5"/>
<text text-anchor="middle" x="559.5" y="-565.3" font-family="Times,serif" font-size="14.00" fill="#000000">Album</text>
<polyline fill="none" stroke="#000000" points="392,-557.5 727,-557.5 "/>
<text text-anchor="start" x="400" y="-542.3" font-family="Times,serif" font-size="14.00" fill="#000000">id :bigint</text>
<text text-anchor="start" x="400" y="-527.3" font-family="Times,serif" font-size="14.00" fill="#000000">title :character varying</text>
<text text-anchor="start" x="400" y="-512.3" font-family="Times,serif" font-size="14.00" fill="#000000">image_url :character varying</text>
<text text-anchor="start" x="400" y="-497.3" font-family="Times,serif" font-size="14.00" fill="#000000">artist_id :bigint</text>
<text text-anchor="start" x="400" y="-482.3" font-family="Times,serif" font-size="14.00" fill="#000000">created_at :timestamp(6) without time zone</text>
<text text-anchor="start" x="400" y="-467.3" font-family="Times,serif" font-size="14.00" fill="#000000">updated_at :timestamp(6) without time zone</text>
</g>
<!-- AlbumMap -->
<g id="node9" class="node">
<title>AlbumMap</title>
<path fill="none" stroke="#000000" d="M561,-301.5C561,-301.5 872,-301.5 872,-301.5 878,-301.5 884,-307.5 884,-313.5 884,-313.5 884,-410.5 884,-410.5 884,-416.5 878,-422.5 872,-422.5 872,-422.5 561,-422.5 561,-422.5 555,-422.5 549,-416.5 549,-410.5 549,-410.5 549,-313.5 549,-313.5 549,-307.5 555,-301.5 561,-301.5"/>
<text text-anchor="middle" x="716.5" y="-407.3" font-family="Times,serif" font-size="14.00" fill="#000000">AlbumMap</text>
<polyline fill="none" stroke="#000000" points="549,-399.5 884,-399.5 "/>
<text text-anchor="start" x="557" y="-384.3" font-family="Times,serif" font-size="14.00" fill="#000000">id :bigint</text>
<text text-anchor="start" x="557" y="-369.3" font-family="Times,serif" font-size="14.00" fill="#000000">input :character varying</text>
<text text-anchor="start" x="557" y="-354.3" font-family="Times,serif" font-size="14.00" fill="#000000">album_id :bigint</text>
<text text-anchor="start" x="557" y="-339.3" font-family="Times,serif" font-size="14.00" fill="#000000">scope :integer</text>
<text text-anchor="start" x="557" y="-324.3" font-family="Times,serif" font-size="14.00" fill="#000000">created_at :timestamp(6) without time zone</text>
<text text-anchor="start" x="557" y="-309.3" font-family="Times,serif" font-size="14.00" fill="#000000">updated_at :timestamp(6) without time zone</text>
</g>
<!-- Album&#45;&gt;AlbumMap -->
<g id="edge5" class="edge">
<title>Album&#45;&gt;AlbumMap</title>
<path fill="none" stroke="#4bdb1f" d="M625.6676,-453.4109C633.4098,-445.6194 641.3162,-437.6627 649.0752,-429.8542"/>
<ellipse fill="none" stroke="#4bdb1f" cx="622.5707" cy="-456.5275" rx="4" ry="4"/>
<polygon fill="#4bdb1f" stroke="#4bdb1f" points="649.1019,-429.8274 659.3426,-425.9057 652.6262,-426.2806 656.1505,-422.7339 656.1505,-422.7339 656.1505,-422.7339 652.6262,-426.2806 652.9585,-419.562 649.1019,-429.8274 649.1019,-429.8274"/>
</g>
<!-- Album&#45;&gt;Track -->
<g id="edge6" class="edge">
<title>Album&#45;&gt;Track</title>
<path fill="none" stroke="#fd7674" d="M477.9568,-454.2662C467.6315,-445.9427 457.0552,-437.4169 446.7043,-429.0728"/>
<ellipse fill="none" stroke="#fd7674" cx="481.1677" cy="-456.8545" rx="4" ry="4"/>
<polygon fill="#fd7674" stroke="#fd7674" points="446.6261,-429.0099 441.6649,-419.2304 442.7334,-425.8719 438.8407,-422.7339 438.8407,-422.7339 438.8407,-422.7339 442.7334,-425.8719 436.0165,-426.2373 446.6261,-429.0099 446.6261,-429.0099"/>
</g>
<!-- Track&#45;&gt;Formatting -->
<g id="edge8" class="edge">
<title>Track&#45;&gt;Formatting</title>
<path fill="none" stroke="#02fd3d" d="M354.8824,-293.2839C353.09,-250.9912 357.4801,-197.5073 383.5,-158 390.7637,-146.9711 399.7272,-137.083 409.7289,-128.2395"/>
<ellipse fill="none" stroke="#02fd3d" cx="355.0932" cy="-297.3203" rx="4" ry="4"/>
<polygon fill="#02fd3d" stroke="#02fd3d" points="409.8997,-128.0966 420.4567,-125.1299 413.7342,-124.8877 417.5687,-121.6788 417.5687,-121.6788 417.5687,-121.6788 413.7342,-124.8877 414.6807,-118.2278 409.8997,-128.0966 409.8997,-128.0966"/>
</g>
<!-- Track&#45;&gt;Tagging -->
<g id="edge7" class="edge">
<title>Track&#45;&gt;Tagging</title>
<path fill="none" stroke="#c98dc3" d="M278.2788,-296.5623C267.1114,-287.9873 255.7189,-279.2395 244.6945,-270.7744"/>
<ellipse fill="none" stroke="#c98dc3" cx="281.4539" cy="-299.0003" rx="4" ry="4"/>
<polygon fill="#c98dc3" stroke="#c98dc3" points="244.6722,-270.7573 239.4813,-261.0978 240.7065,-267.7121 236.7407,-264.667 236.7407,-264.667 236.7407,-264.667 240.7065,-267.7121 234.0001,-268.2361 244.6722,-270.7573 244.6722,-270.7573"/>
</g>
<!-- Format -->
<g id="node11" class="node">
<title>Format</title>
<path fill="none" stroke="#000000" d="M404,-166C404,-166 715,-166 715,-166 721,-166 727,-172 727,-178 727,-178 727,-245 727,-245 727,-251 721,-257 715,-257 715,-257 404,-257 404,-257 398,-257 392,-251 392,-245 392,-245 392,-178 392,-178 392,-172 398,-166 404,-166"/>
<text text-anchor="middle" x="559.5" y="-241.8" font-family="Times,serif" font-size="14.00" fill="#000000">Format</text>
<polyline fill="none" stroke="#000000" points="392,-234 727,-234 "/>
<text text-anchor="start" x="400" y="-218.8" font-family="Times,serif" font-size="14.00" fill="#000000">id :bigint</text>
<text text-anchor="start" x="400" y="-203.8" font-family="Times,serif" font-size="14.00" fill="#000000">name :character varying</text>
<text text-anchor="start" x="400" y="-188.8" font-family="Times,serif" font-size="14.00" fill="#000000">created_at :timestamp(6) without time zone</text>
<text text-anchor="start" x="400" y="-173.8" font-family="Times,serif" font-size="14.00" fill="#000000">updated_at :timestamp(6) without time zone</text>
</g>
<!-- Track&#45;&gt;Format -->
<g id="edge9" class="edge">
<title>Track&#45;&gt;Format</title>
<path fill="none" stroke="#334e30" d="M450.5482,-295.1594C464.4114,-284.5144 478.5708,-273.6421 491.8977,-263.4089"/>
<polygon fill="#334e30" stroke="#334e30" points="450.305,-295.3461 439.6328,-297.8673 446.3392,-298.3913 442.3735,-301.4364 442.3735,-301.4364 442.3735,-301.4364 446.3392,-298.3913 445.1141,-305.0056 450.305,-295.3461 450.305,-295.3461"/>
<polygon fill="#334e30" stroke="#334e30" points="492.1464,-263.218 502.8185,-260.6969 496.1121,-260.1728 500.0779,-257.1277 500.0779,-257.1277 500.0779,-257.1277 496.1121,-260.1728 497.3373,-253.5585 492.1464,-263.218 492.1464,-263.218"/>
</g>
<!-- Format&#45;&gt;Formatting -->
<g id="edge10" class="edge">
<title>Format&#45;&gt;Formatting</title>
<path fill="none" stroke="#970c70" d="M559.5,-157.608C559.5,-149.2395 559.5,-140.4868 559.5,-131.8131"/>
<ellipse fill="none" stroke="#970c70" cx="559.5" cy="-161.9366" rx="4" ry="4"/>
<polygon fill="#970c70" stroke="#970c70" points="559.5001,-131.6948 564,-121.6947 559.5,-126.6948 559.5,-121.6948 559.5,-121.6948 559.5,-121.6948 559.5,-126.6948 555,-121.6948 559.5001,-131.6948 559.5001,-131.6948"/>
</g>
<!-- Artist -->
<g id="node12" class="node">
<title>Artist</title>
<path fill="none" stroke="#000000" d="M404,-617.5C404,-617.5 715,-617.5 715,-617.5 721,-617.5 727,-623.5 727,-629.5 727,-629.5 727,-711.5 727,-711.5 727,-717.5 721,-723.5 715,-723.5 715,-723.5 404,-723.5 404,-723.5 398,-723.5 392,-717.5 392,-711.5 392,-711.5 392,-629.5 392,-629.5 392,-623.5 398,-617.5 404,-617.5"/>
<text text-anchor="middle" x="559.5" y="-708.3" font-family="Times,serif" font-size="14.00" fill="#000000">Artist</text>
<polyline fill="none" stroke="#000000" points="392,-700.5 727,-700.5 "/>
<text text-anchor="start" x="400" y="-685.3" font-family="Times,serif" font-size="14.00" fill="#000000">id :bigint</text>
<text text-anchor="start" x="400" y="-670.3" font-family="Times,serif" font-size="14.00" fill="#000000">title :character varying</text>
<text text-anchor="start" x="400" y="-655.3" font-family="Times,serif" font-size="14.00" fill="#000000">image_url :character varying</text>
<text text-anchor="start" x="400" y="-640.3" font-family="Times,serif" font-size="14.00" fill="#000000">created_at :timestamp(6) without time zone</text>
<text text-anchor="start" x="400" y="-625.3" font-family="Times,serif" font-size="14.00" fill="#000000">updated_at :timestamp(6) without time zone</text>
</g>
<!-- Artist&#45;&gt;ArtistMap -->
<g id="edge11" class="edge">
<title>Artist&#45;&gt;ArtistMap</title>
<path fill="none" stroke="#fdacab" d="M674.5393,-613.6397C695.2827,-603.0161 716.6242,-591.8404 736.5,-581 746.8369,-575.3622 757.6523,-569.2569 768.2368,-563.1617"/>
<ellipse fill="none" stroke="#fdacab" cx="670.7927" cy="-615.5534" rx="4" ry="4"/>
<polygon fill="#fdacab" stroke="#fdacab" points="768.4038,-563.0651 779.3127,-561.949 772.7309,-560.5598 777.058,-558.0546 777.058,-558.0546 777.058,-558.0546 772.7309,-560.5598 774.8033,-554.1602 768.4038,-563.0651 768.4038,-563.0651"/>
</g>
<!-- Artist&#45;&gt;Album -->
<g id="edge12" class="edge">
<title>Artist&#45;&gt;Album</title>
<path fill="none" stroke="#086595" d="M559.5,-609.2187C559.5,-603.1572 559.5,-596.9704 559.5,-590.8231"/>
<ellipse fill="none" stroke="#086595" cx="559.5" cy="-613.4393" rx="4" ry="4"/>
<polygon fill="#086595" stroke="#086595" points="559.5001,-590.5441 564,-580.544 559.5,-585.5441 559.5,-580.5441 559.5,-580.5441 559.5,-580.5441 559.5,-585.5441 555,-580.5441 559.5001,-590.5441 559.5001,-590.5441"/>
</g>
<!-- Artist&#45;&gt;Track -->
<g id="edge13" class="edge">
<title>Artist&#45;&gt;Track</title>
<path fill="none" stroke="#989ee4" d="M413.2448,-612.5415C401.8341,-603.4264 391.6144,-592.9706 383.5,-581 354.3231,-537.9574 350.531,-478.7257 353.3715,-432.7145"/>
<ellipse fill="none" stroke="#989ee4" cx="416.521" cy="-615.0419" rx="4" ry="4"/>
<polygon fill="#989ee4" stroke="#989ee4" points="353.3881,-432.4876 358.6095,-422.8446 353.7548,-427.501 354.1216,-422.5145 354.1216,-422.5145 354.1216,-422.5145 353.7548,-427.501 349.6338,-422.1844 353.3881,-432.4876 353.3881,-432.4876"/>
</g>
</g>
</svg>
